<?xml version="1.0" encoding="utf-8"?>
<!-- Generator: Adobe Illustrator 22.0.1, SVG Export Plug-In . SVG Version: 6.00 Build 0)  -->
<svg version="1.1" id="Layer_1" xmlns="http://www.w3.org/2000/svg" xmlns:xlink="http://www.w3.org/1999/xlink" x="0px" y="0px"
	 viewBox="0 0 272.3 99.4" style="enable-background:new 0 0 272.3 99.4;" xml:space="preserve">
<style type="text/css">
	.st0{fill:#FFFFFF;}
	.st1{fill:#F2E719;stroke:#DD7800;stroke-miterlimit:10;}
</style>
<g>
	<path class="st0" d="M269.7,54.9c-1.4-6.6-1.6-13.1,0-19.7C269.7,41.8,269.7,48.4,269.7,54.9z"/>
	<g>
		<path class="st0" d="M189.7,41.8c-1,1.1-1.8,2.4-2.9,3.3c-2.3,2-2.2,3.2,0.1,5.4c7.4,7.5,9.5,13,8.5,20.2c-2.4-0.8-1.7-3.2-2-4.9
			c-2.9-12.3-13.8-20.5-25.3-19.3c-3.6,0.4-4.7,1.9-4.5,5.8c0.2,6.1,0.1,12.2,0.1,18.4c-0.5,0-1,0-1.4,0c0-16.9,0-34,0-50.9
			c2,2.8,1.3,5.9,1.4,9c0.1,3.3,0.2,6.6,0,9.9c-0.4,4.4,0.5,6.6,5,5.6c2-0.5,4.7-0.7,6.5,0.4c5.9,3.3,9.6,0,13.3-4.1
			C189.6,39.9,190,40.6,189.7,41.8z"/>
		<path class="st0" d="M103.4,75.9c1.4-4,2-7.9,1.3-12.8c-3.5,2.8-6.5,5.8-10.5,6.9c-10.7,2.9-21.1-5-21.5-17.2
			c-0.2-6.1-0.8-12.4,0.5-18.5c0.6,0,1.1,0,1.7,0c0,4.6,0,9.1,0,13.7c0,12.4,5.9,20.1,15.2,20c9.3-0.1,14.8-7.7,15-20.2
			c0-4.5-0.6-9,0.6-13.5c2.3,0.1,1.7,1.9,1.7,2.9c0,10.3,0,20.6,0,30.9c0,3.3-0.6,6.5-2.6,9.3C103.6,77.5,103,77.2,103.4,75.9z"/>
		<path class="st0" d="M148.9,70.7c0-5.4,0-10.8,0-16.3c-0.1-11.4-6.6-18.9-15.9-18.4c-9,0.5-15.2,8.9-14.1,18.9
			c1.1,9.9,8.7,15.7,18.8,13.9c0.8-0.1,1.6-0.5,2.5,0.8c-2,2.6-4.9,2.6-7.7,2.4c-9-0.8-15.9-9-16-18.8c-0.1-10.2,6.5-18.5,15.2-19.6
			c9.5-1.1,17.5,5.4,19.4,15.3C151.9,53.7,151.3,67,148.9,70.7z"/>
		<path class="st0" d="M193.2,85.5c0.5-2.1,2.3-1.3,3.4-1.9c7.2-2.5,11.1-8.1,11.3-16.7c0.1-9.3,0-18.5,0-27.8c0-1.9-0.5-4,1-5.4
			c0.6,0.3,1.3,0.3,1.3,0.4c1.1,12.4,1.4,25-0.1,37.4C208.9,81,199.9,87.6,193.2,85.5z"/>
		<path class="st0" d="M269.7,54.9c-1.7,10.6-9.1,17.6-18,17s-15.4-8.1-16.3-18.4c0.7-6.1,0.7-12.3,0-18.4c2.8-2.4,2,0.8,2,1.9
			c0.1,5,0,10,0.1,15.2c0.2,9.8,6.5,17,14.7,17.2c8.5,0.1,15.1-7.1,15.4-17.2c0.2-5.8-0.6-11.8,0.6-17.6c0-0.1,0.7-0.4,1-0.3
			c0.2,0.1,0.4,0.7,0.5,0.9C269,41.8,269.1,48.4,269.7,54.9z"/>
		<path class="st0" d="M222.5,70.7c0-12.2,0-24.3,0-36.5c0.5,0,1,0,1.4,0c1,12.2,0.2,24.3,0.5,36.5
			C223.9,70.7,223.1,70.7,222.5,70.7z"/>
		<path class="st0" d="M103.4,75.9c0.4,0.5,0.8,1.1,1.2,1.6c-7.2,11.2-19.8,12.8-27.4,1.3C87.9,86.3,96.4,85.9,103.4,75.9z"/>
		<path class="st0" d="M189.7,41.8c-0.5-0.5-0.8-0.9-1.3-1.5c2.3-2.8,4.2-6.1,8.9-6.9C194.9,37.5,192.4,39.8,189.7,41.8z"/>
		<path class="st0" d="M235.5,35.2c1.4,6.1,1.6,12.3,0,18.4C235.5,47.5,235.5,41.4,235.5,35.2z"/>
		<path class="st0" d="M223,19.6c1.8,2.5,1.8,5.2,0.5,8.7C221.1,25,222.3,22.2,223,19.6z"/>
		<path class="st0" d="M209.4,18.2c1.6,3.8,1.6,6.3,0.4,9.8C207.7,24.7,208.1,22.2,209.4,18.2z"/>
	</g>
</g>
<g>
	<path class="st1" d="M45.1,57.7c0.3,3.7,1.2,7,2,10.2c2,7.4,4.7,14.7,8.9,21.2c1.1,1.6,1.1,2.9-0.4,4.3c-1.5,1.5-2.6,0.5-3.9-0.2
		c-13.6-7.8-23.5-18.8-28.7-33.7c-0.2-0.5-0.4-0.9-0.6-1.5c-1.6,1.2-2.1,2.9-2.8,4.4c-2.2,4.8-3.2,10-4.4,15.1
		c-0.5,2.2-0.9,5-3.9,5.1c-2.8,0.1-3.7-2.5-4.5-4.7c-2.6-7.2-4.3-14.5-2.7-22.3c0.9-4.3,2.7-8.1,6-11.1c2.4-2.2,5.1-3.7,8.5-2.6
		c1.5,0.5,1.3-0.4,1.5-1.2c0.5-2.5,0.8-5,1.6-7.4c4.5-13.7,14.3-22.4,27.3-27.9c2-0.8,3.7-0.4,5,1.2c1.3,1.7,1.1,3.4-0.1,5.1
		C49.7,18,46.2,24.6,44.4,32c-0.1,0.4-0.2,0.8-0.3,1.1c-0.2,1.8-1.1,3.8-0.6,5.4c0.6,2,3.1,1.2,4.7,1.9c2.9,1.2,5.7,2.6,7.8,4.9
		c7.1,7.6,9.6,16.7,8.4,26.9c-0.2,1.5-0.6,3-2.2,3.4c-1.8,0.5-2.9-0.7-3.9-1.9c-1.7-1.9-2.5-4.4-3.7-6.6
		C52.3,63.3,49.8,59.6,45.1,57.7z"/>
	<path class="st1" d="M31.4,50.3c-2.4-3-4.3-6.1-8.1-7.2c-1.2-0.4-0.5-1.9-0.4-2.9c1.3-9.5,5.8-17.2,12.9-23.5
		c3.8-3.4,8.1-6.1,12.7-8.1c1-0.5,2.2-1.3,3.2-0.1c0.8,1.1-0.2,2-0.8,2.9c-5.2,7.8-9.1,16-10.4,25.4c-0.4,2.8-0.4,5.6-0.1,8.4
		c0.1,1.3-0.2,1.7-1.5,1.6C36,46.7,33.3,47.4,31.4,50.3z"/>
	<path class="st1" d="M18.5,45.1c-5.4,5.3-8.1,11.4-8.9,18.3c-0.1,1.1-0.1,2.2-0.1,3.2c0.1,0.9,0.6,1.5,1.5,1.5c1,0,1.3-0.7,1.3-1.6
		c0-2.6,0.4-5.3,1.1-7.8c1.2-4.2,3.3-7.9,6.4-10.9c2.3-2.3,3.5-2.3,5.8,0.1c3.5,3.8,5.7,8.4,7.2,13.2c2.6,7.9,6.5,15.2,11.6,21.7
		c0.4,0.5,0.7,0.9,0.9,1.5c0.1,0.2,0,0.6,0,0.9C35.7,78,27.9,66.8,25.3,56c0.5-0.1,0.9-0.1,1.4-0.1c0.9,0,1.5-0.4,1.5-1.3
		c0-0.9-0.6-1.3-1.5-1.5c-2.5-0.5-4.4,0.5-6,2.2c-2.3,2.5-3.6,5.5-4.8,8.6c-1.6,4.3-2.6,8.8-3.6,13.2c-0.2,0.8-0.2,2-1.1,2.2
		c-1,0.2-1.2-1.1-1.5-1.8C7.2,70.5,5.5,63.6,7,56.3c0.8-4,2.6-7.5,5.9-10.1C14.5,44.9,16,44.1,18.5,45.1z"/>
	<path class="st1" d="M61.3,72.6c-1.4-1.3-2.2-2.7-2.9-4.2c-1.3-2.8-2.9-5.6-4.8-7.9c-3-3.7-6.8-6-11.7-6.3
		c-2.2-0.1-4.4-0.5-6.7-0.6c-2.1-0.1-1.6-1.1-0.9-2.2c0.8-1.1,2-1.5,3.3-1.6c2.6-0.2,5,0.2,7.5,1.1c1.1,0.4,2.3,0.7,2.7-0.6
		c0.5-1.3-0.7-1.8-1.8-2.2c-0.9-0.4-2.2-0.2-2.5-1.2c-0.4-1.3-0.9-2.9-0.1-3.9c0.7-1,2-0.1,2.9,0.2c9.4,3.1,13.2,10.6,15,19.5
		C62,65.8,62.3,69.1,61.3,72.6z"/>
	<path class="st1" d="M49.1,83.8c-6.9-8-11.5-16.9-14.4-27.2c2.2,0.2,4.2,0.4,6.3,0.6c0.8,0.1,1.1,0.7,1.2,1.5
		c1.3,8.2,3.6,16.1,7,23.7C49.2,82.7,49.1,83.2,49.1,83.8z"/>
</g>
</svg>
